ply
format ascii 1.0
comment VCGLIB generated
element vertex 10
property float x
property float y
property float z
property uchar red
property uchar green
property uchar blue
property uchar alpha
element face 11
property list uchar int vertex_indices
end_header
0 0.1 0 128 168 191 255 
1 0.2 1 128 168 191 255 
2 0 2 128 168 191 255 
3 -0.1 1.5 128 168 191 255 
3.5 -0.2 0 128 168 191 255 
4 0.1 -1 128 168 191 255 
1 0.3 -1.5 128 168 191 255 
1 0.2 -0.5 128 168 191 255 
2 0 0.5 128 168 191 255 
2 0 -0.75 128 168 191 255 
3 7 8 9 
3 1 8 7 
3 8 4 9 
3 7 9 6 
3 8 3 4 
3 2 3 8 
3 1 2 8 
3 9 4 5 
3 0 1 7 
3 0 7 6 
3 6 9 5